KRSPY-parametric-NarrowBlackMinGrade-minXOPQminYOPQmaxXTRA.ufo
<glyph name="comma" format="2">
  <advance width="151"/>
  <unicode hex="002C"/>
  <outline>
    <contour>
      <point x="119" y="-155" type="line"/>
      <point x="119" y="0" type="line"/>
      <point x="119" y="4" type="line"/>
      <point x="117" y="4" type="line"/>
      <point x="117" y="0" type="line"/>
      <point x="117" y="0" type="line"/>
      <point x="117" y="0" type="line"/>
      <point x="117" y="-155" type="line"/>
    </contour>
  </outline>
</glyph>
<glyph name="period" format="2">
  <advance width="61"/>
  <unicode hex="002E"/>
  <outline>
    <contour>
      <point x="29" y="0" type="line" identifier="1m237t4hyw"/>
      <point x="29" y="3" type="line" identifier="v7N4yg5XNk"/>
      <point x="29" y="6" type="line"/>
      <point x="23" y="6" type="line" identifier="zfocDyDTCM"/>
      <point x="23" y="3" type="line"/>
      <point x="23" y="0" type="line" identifier="S4rO5KuHiL"/>
    </contour>
  </outline>
</glyph>
<glyph name="three" format="2">
  <advance width="151"/>
  <unicode hex="0033"/>
  <outline>
    <contour>
      <point x="-34" y="0" type="line" identifier="O9abUc1nmN"/>
      <point x="180" y="0" type="line" identifier="kMJYMTfXCq"/>
      <point x="180" y="810" type="line" identifier="su2XmdS8e8"/>
      <point x="111" y="810" type="line" identifier="JQaOzDQqlF"/>
      <point x="111" y="813" type="line"/>
      <point x="172" y="907" type="line" identifier="S91TzLL02W"/>
      <point x="172" y="1600" type="line" identifier="xg8x2Ki40p"/>
      <point x="-32" y="1600" type="line" identifier="pE1XSRiy68"/>
      <point x="-32" y="1437" type="line" identifier="5lNstGRcSF"/>
      <point x="-30" y="1437" type="line" identifier="AcE5xKDZfE"/>
      <point x="-30" y="1598" type="line" identifier="7ogBYufWpl"/>
      <point x="170" y="1598" type="line" identifier="RHLvSX2Jv6"/>
      <point x="170" y="907" type="line" identifier="YUjTrmoWd9"/>
      <point x="109" y="813" type="line"/>
      <point x="109" y="810" type="line" identifier="iic1IBkDqp"/>
      <point x="1" y="810" type="line" identifier="lRLJEhXMlO"/>
      <point x="1" y="808" type="line" identifier="8aKgEELrVU"/>
      <point x="178" y="808" type="line" identifier="Dm8zjmbhNr"/>
      <point x="178" y="2" type="line" identifier="xv9CFHiFgB"/>
      <point x="-32" y="2" type="line" identifier="YajKQV3MHP"/>
      <point x="-32" y="110" type="line" identifier="36SchVkwze"/>
      <point x="-34" y="110" type="line" identifier="tVui9PiOjA"/>
    </contour>
  </outline>
</glyph>
<glyph name="four" format="2">
  <advance width="163"/>
  <unicode hex="0034"/>
  <outline>
    <contour>
      <point x="151" y="0" type="line"/>
      <point x="153" y="0" type="line"/>
      <point x="153" y="812" type="line"/>
      <point x="195" y="812" type="line"/>
      <point x="195" y="814" type="line"/>
      <point x="153" y="814" type="line"/>
      <point x="153" y="1600" type="line"/>
      <point x="151" y="1600" type="line"/>
      <point x="151" y="814" type="line"/>
      <point x="-31" y="814" type="line"/>
      <point x="-31" y="902" type="line"/>
      <point x="22" y="1680" type="line"/>
      <point x="21" y="1680" type="line"/>
      <point x="-33" y="902" type="line"/>
      <point x="-33" y="812" type="line"/>
      <point x="151" y="812" type="line"/>
    </contour>
  </outline>
</glyph>
<glyph name="eight" format="2">
  <advance width="295"/>
  <unicode hex="0038"/>
  <outline>
    <contour>
      <point x="212" y="799" type="line"/>
      <point x="259" y="745" type="line"/>
      <point x="259" y="2" type="line"/>
      <point x="36" y="2" type="line"/>
      <point x="36" y="745" type="line"/>
      <point x="84" y="799" type="line"/>
    </contour>
    <contour>
      <point x="214" y="799" type="line"/>
      <point x="214" y="801" type="line"/>
      <point x="258" y="851" type="line"/>
      <point x="258" y="1600" type="line"/>
      <point x="37" y="1600" type="line"/>
      <point x="37" y="851" type="line"/>
      <point x="82" y="801" type="line"/>
      <point x="82" y="799" type="line"/>
      <point x="34" y="746" type="line"/>
      <point x="34" y="0" type="line"/>
      <point x="261" y="0" type="line"/>
      <point x="261" y="746" type="line"/>
    </contour>
    <contour>
      <point x="84" y="801" type="line"/>
      <point x="39" y="852" type="line"/>
      <point x="39" y="1598" type="line"/>
      <point x="256" y="1598" type="line"/>
      <point x="256" y="852" type="line"/>
      <point x="212" y="801" type="line"/>
    </contour>
  </outline>
</glyph>
<glyph name="E" format="2">
  <advance width="150"/>
  <unicode hex="0045"/>
  <outline>
    <contour>
      <point x="-17" y="0" type="line" identifier="fZynkQ4XHB"/>
      <point x="177" y="0" type="line" identifier="FAQNpgUPxV"/>
      <point x="177" y="348" type="line" identifier="gHI0YjrPxR"/>
      <point x="175" y="348" type="line" identifier="gxCIuXb4el"/>
      <point x="175" y="2" type="line" identifier="5cgTYOhATF"/>
      <point x="-15" y="2" type="line" identifier="bWs42DaCgU"/>
      <point x="-15" y="799" type="line" identifier="VtD2aADJmn"/>
      <point x="160" y="799" type="line" identifier="PpbsFdHAnS"/>
      <point x="160" y="801" type="line" identifier="8WuC5p8Ax5"/>
      <point x="-15" y="801" type="line" identifier="m39IWn9ntA"/>
      <point x="-15" y="1598" type="line" identifier="gQ21I4SHQg"/>
      <point x="174" y="1598" type="line" identifier="eqNb2VTwYs"/>
      <point x="174" y="1157" type="line" identifier="mLmcFoJA4m"/>
      <point x="176" y="1157" type="line" identifier="e79n7CoPy1"/>
      <point x="176" y="1600" type="line" identifier="qYRmo14Il5"/>
      <point x="-17" y="1600" type="line" identifier="HmJIcnLWfC"/>
    </contour>
  </outline>
</glyph>
<glyph name="W" format="2">
  <advance width="412"/>
  <unicode hex="0057"/>
  <outline>
    <contour>
      <point x="43" y="1600" type="line" smooth="yes" identifier="12Pyby1xY2"/>
      <point x="41" y="1600" type="line" smooth="yes" identifier="5LJg4ajoG6"/>
      <point x="41" y="0" type="line" smooth="yes" identifier="ZqTZqAY3uY"/>
      <point x="170" y="0" type="line" smooth="yes" identifier="rCeQLyjlsN"/>
      <point x="207" y="256" type="line"/>
      <point x="208" y="256" type="line"/>
      <point x="208" y="0" type="line" smooth="yes" identifier="Pkl7cZ37MU"/>
      <point x="318" y="0" type="line" smooth="yes" identifier="R4lklfJsHA"/>
      <point x="377" y="312" type="line" smooth="yes" identifier="7g7f8Wu7K4"/>
      <point x="377" y="1600" type="line" smooth="yes" identifier="RTOJW56qXy"/>
      <point x="375" y="1600" type="line" identifier="JfSFAkWGZC"/>
      <point x="375" y="313" type="line" smooth="yes" identifier="WWvGwSpq0g"/>
      <point x="316" y="2" type="line" smooth="yes" identifier="oee4nqI8Wl"/>
      <point x="210" y="2" type="line" identifier="Ljn2lpvpG8"/>
      <point x="210" y="256" type="line"/>
      <point x="210" y="1597" type="line" smooth="yes"/>
      <point x="208" y="1597" type="line"/>
      <point x="208" y="283" type="line"/>
      <point x="206" y="269" type="line"/>
      <point x="168" y="2" type="line" identifier="GlWB6PG54Z"/>
      <point x="43" y="2" type="line" identifier="iqeTRv7HXg"/>
    </contour>
  </outline>
</glyph>
<glyph name="Y" format="2">
  <advance width="271"/>
  <unicode hex="0059"/>
  <outline>
    <contour>
      <point x="134" y="0" type="line" identifier="XKjckKJ7m9"/>
      <point x="136" y="0" type="line" identifier="WihjL321cU"/>
      <point x="136" y="770" type="line" identifier="rvzWMWl6O1"/>
      <point x="242" y="821" type="line" identifier="YbKEFhFR3q"/>
      <point x="242" y="1601" type="line" identifier="wnC8PudY2b"/>
      <point x="240" y="1601" type="line" identifier="spI4xe8t4f"/>
      <point x="240" y="822" type="line" identifier="Jw55i2s2Mm"/>
      <point x="136" y="772" type="line" identifier="9ncbEH2hEb"/>
      <point x="134" y="772" type="line" identifier="u7HFbTQwMo"/>
      <point x="31" y="822" type="line" identifier="oy8ifCCtGL"/>
      <point x="31" y="1601" type="line" identifier="ah5yat5gKV"/>
      <point x="29" y="1601" type="line" identifier="fJXhpKV79E"/>
      <point x="29" y="821" type="line" identifier="k3vH9oxqcN"/>
      <point x="134" y="770" type="line" identifier="3Kveia3O9h"/>
    </contour>
  </outline>
</glyph>
<glyph name="C.wide" format="2">
  <advance width="148"/>
  <outline>
    <contour>
      <point x="-32" y="0" type="line" identifier="7lPhzTnk2Z"/>
      <point x="178" y="0" type="line" identifier="qJVLZGnkwh"/>
      <point x="178" y="2" type="line" identifier="Y750RHTvDj"/>
      <point x="-30" y="2" type="line" identifier="L2LsGnXiZ2"/>
      <point x="-30" y="1290" type="line" identifier="sUWsr03vF4"/>
      <point x="29" y="1598" type="line" identifier="dbOUe6OhxL"/>
      <point x="177" y="1598" type="line" identifier="5BjRbcud80"/>
      <point x="177" y="1600" type="line" identifier="9eJelv8BOw"/>
      <point x="27" y="1600" type="line" identifier="lfZev3ICaC"/>
      <point x="-32" y="1291" type="line" identifier="V1EWIdPahq"/>
    </contour>
  </outline>
</glyph>
<glyph name="E.wide" format="2">
  <advance width="112"/>
  <outline>
    <contour>
      <point x="-26" y="0" type="line" identifier="fZynkQ4XHB"/>
      <point x="148" y="0" type="line" identifier="FAQNpgUPxV"/>
      <point x="148" y="2" type="line" identifier="5cgTYOhATF"/>
      <point x="-24" y="2" type="line" identifier="bWs42DaCgU"/>
      <point x="-24" y="799" type="line" identifier="VtD2aADJmn"/>
      <point x="132" y="799" type="line" identifier="PpbsFdHAnS"/>
      <point x="132" y="801" type="line" identifier="8WuC5p8Ax5"/>
      <point x="-24" y="801" type="line" identifier="m39IWn9ntA"/>
      <point x="-24" y="1598" type="line" identifier="gQ21I4SHQg"/>
      <point x="147" y="1598" type="line" identifier="eqNb2VTwYs"/>
      <point x="147" y="1600" type="line" identifier="qYRmo14Il5"/>
      <point x="-26" y="1600" type="line" identifier="HmJIcnLWfC"/>
    </contour>
  </outline>
</glyph>
<glyph name="K.narrow" format="2">
  <advance width="179"/>
  <outline>
    <contour>
      <point x="-22" y="0" type="line"/>
      <point x="-22" y="804" type="line"/>
      <point x="138" y="853" type="line"/>
      <point x="208" y="0" type="line"/>
      <point x="210" y="0" type="line"/>
      <point x="140" y="855" type="line"/>
      <point x="186" y="887" type="line"/>
      <point x="186" y="1600" type="line"/>
      <point x="184" y="1600" type="line"/>
      <point x="184" y="888" type="line"/>
      <point x="-22" y="806" type="line"/>
      <point x="-22" y="1600" type="line"/>
      <point x="-24" y="1600" type="line"/>
      <point x="-24" y="0" type="line"/>
    </contour>
  </outline>
</glyph>
<glyph name="L.wide" format="2">
  <advance width="260"/>
  <outline>
    <contour>
      <point x="38" y="0" type="line" identifier="XkJNfQlnnt"/>
      <point x="231" y="0" type="line" identifier="82EXZEgt46"/>
      <point x="231" y="2" type="line" identifier="cqpSxwFiM3"/>
      <point x="40" y="2" type="line" identifier="MbxRZRd8vz"/>
      <point x="40" y="1600" type="line" identifier="lYiaKSKITt"/>
      <point x="38" y="1600" type="line" identifier="XFf4mMUzYo"/>
    </contour>
  </outline>
</glyph>
<glyph name="M.narrow" format="2">
  <advance width="253"/>
  <outline>
    <contour>
      <point x="295" y="0" type="line" smooth="yes" identifier="12Pyby1xY2"/>
      <point x="297" y="0" type="line" smooth="yes" identifier="5LJg4ajoG6"/>
      <point x="297" y="1600" type="line" smooth="yes" identifier="ZqTZqAY3uY"/>
      <point x="10" y="1600" type="line" smooth="yes" identifier="R4lklfJsHA"/>
      <point x="-39" y="1481" type="line" smooth="yes" identifier="7g7f8Wu7K4"/>
      <point x="-39" y="0" type="line" smooth="yes" identifier="RTOJW56qXy"/>
      <point x="-37" y="0" type="line" identifier="JfSFAkWGZC"/>
      <point x="-37" y="1480" type="line" smooth="yes" identifier="WWvGwSpq0g"/>
      <point x="12" y="1598" type="line" smooth="yes" identifier="oee4nqI8Wl"/>
      <point x="131" y="1598" type="line" identifier="Ljn2lpvpG8"/>
      <point x="131" y="0" type="line" smooth="yes"/>
      <point x="133" y="0" type="line"/>
      <point x="133" y="1598" type="line" identifier="GlWB6PG54Z"/>
      <point x="295" y="1598" type="line" identifier="iqeTRv7HXg"/>
    </contour>
  </outline>
</glyph>
<glyph name="N.narrow" format="2">
  <advance width="164"/>
  <outline>
    <contour>
      <point x="-3" y="0" type="line" smooth="yes"/>
      <point x="-1" y="0" type="line"/>
      <point x="-1" y="1523" type="line"/>
      <point x="36" y="1598" type="line"/>
      <point x="164" y="1598" type="line"/>
      <point x="164" y="0" type="line" smooth="yes"/>
      <point x="166" y="0" type="line" smooth="yes"/>
      <point x="166" y="1600" type="line" smooth="yes"/>
      <point x="34" y="1600" type="line" smooth="yes"/>
      <point x="0" y="1531" type="line"/>
      <point x="-1" y="1531" type="line"/>
      <point x="-1" y="1600" type="line"/>
      <point x="-3" y="1600" type="line"/>
    </contour>
  </outline>
</glyph>
<glyph name="N.wide" format="2">
  <advance width="183"/>
  <outline>
    <contour>
      <point x="-26" y="0" type="line" identifier="CkwYPPvJLv"/>
      <point x="-24" y="0" type="line" identifier="oHTJsN7drZ"/>
      <point x="-24" y="1598" type="line" identifier="wfBbYd10Pm"/>
      <point x="5" y="1598" type="line" identifier="MEnBDHq6zU"/>
      <point x="172" y="0" type="line" identifier="3Nbopwznvn"/>
      <point x="208" y="0" type="line" identifier="uKfuudIUvA"/>
      <point x="208" y="1600" type="line" identifier="XRdLFXiM4t"/>
      <point x="206" y="1600" type="line" identifier="MUSJPjCIXg"/>
      <point x="206" y="2" type="line" identifier="VILP20cFmq"/>
      <point x="174" y="2" type="line" identifier="z5b04GDwRN"/>
      <point x="7" y="1600" type="line" identifier="LL64NQ6WBE"/>
      <point x="-26" y="1600" type="line" identifier="dzUaaP1sjt"/>
    </contour>
  </outline>
</glyph>
<glyph name="R.alt" format="2">
  <advance width="159"/>
  <outline>
    <contour>
      <point x="-26" y="801" type="line"/>
      <point x="-26" y="1598" type="line"/>
      <point x="185" y="1598" type="line"/>
      <point x="185" y="801" type="line"/>
    </contour>
    <contour>
      <point x="198" y="0" type="line"/>
      <point x="142" y="799" type="line"/>
      <point x="187" y="799" type="line"/>
      <point x="187" y="1600" type="line"/>
      <point x="-28" y="1600" type="line"/>
      <point x="-28" y="0" type="line"/>
      <point x="-26" y="0" type="line"/>
      <point x="-26" y="799" type="line"/>
      <point x="140" y="799" type="line"/>
      <point x="196" y="0" type="line"/>
    </contour>
  </outline>
</glyph>
<glyph name="S.alt" format="2">
  <advance width="134"/>
  <outline>
    <contour>
      <point x="-37" y="0" type="line" identifier="09VlJ0BjUX"/>
      <point x="166" y="0" type="line" identifier="EagWihqFM8"/>
      <point x="166" y="801" type="line" identifier="KfNuQA7eZe"/>
      <point x="-37" y="801" type="line" identifier="At364YZFEy"/>
      <point x="-37" y="1292" type="line"/>
      <point x="9" y="1598" type="line"/>
      <point x="164" y="1598" type="line" identifier="3ZUkG35meB"/>
      <point x="164" y="1263" type="line" identifier="DTOJhFIl15"/>
      <point x="166" y="1263" type="line" identifier="9KDcrfQ5Ui"/>
      <point x="166" y="1600" type="line" identifier="SaF9ojRFrW"/>
      <point x="7" y="1600" type="line"/>
      <point x="-39" y="1292" type="line"/>
      <point x="-39" y="799" type="line" identifier="3sQ8t8BZ6b"/>
      <point x="164" y="799" type="line" identifier="yiV6OCBLHg"/>
      <point x="164" y="2" type="line" identifier="9kdl9SYsn8"/>
      <point x="-35" y="2" type="line" identifier="yZDWuX8LLe"/>
      <point x="-35" y="243" type="line" identifier="jYb9001DTm"/>
      <point x="-37" y="243" type="line" identifier="ho4DrS0rdW"/>
    </contour>
  </outline>
</glyph>
<glyph name="S.wide" format="2">
  <advance width="144"/>
  <outline>
    <contour>
      <point x="-26" y="0" type="line" identifier="09VlJ0BjUX"/>
      <point x="171" y="0" type="line" identifier="EagWihqFM8"/>
      <point x="171" y="801" type="line" identifier="KfNuQA7eZe"/>
      <point x="-26" y="801" type="line" identifier="At364YZFEy"/>
      <point x="-26" y="1292" type="line"/>
      <point x="24" y="1598" type="line"/>
      <point x="171" y="1598" type="line" identifier="3ZUkG35meB"/>
      <point x="171" y="1600" type="line" identifier="SaF9ojRFrW"/>
      <point x="22" y="1600" type="line"/>
      <point x="-28" y="1292" type="line"/>
      <point x="-28" y="799" type="line" identifier="3sQ8t8BZ6b"/>
      <point x="169" y="799" type="line" identifier="yiV6OCBLHg"/>
      <point x="169" y="2" type="line" identifier="9kdl9SYsn8"/>
      <point x="-26" y="2" type="line" identifier="yZDWuX8LLe"/>
    </contour>
  </outline>
</glyph>
<glyph name="Y.alt" format="2">
  <advance width="288"/>
  <outline>
    <contour>
      <point x="29" y="2" type="line"/>
      <point x="29" y="0" type="line"/>
      <point x="247" y="0" type="line" identifier="oOtn61SmRY"/>
      <point x="247" y="1600" type="line" identifier="8OglXgblhr"/>
      <point x="245" y="1600" type="line" identifier="db0bPhBdaU"/>
      <point x="245" y="801" type="line" identifier="MTAeavIVWY"/>
      <point x="35" y="801" type="line" identifier="lggLiivmLt"/>
      <point x="35" y="1600" type="line" identifier="UPaHY3UudR"/>
      <point x="33" y="1600" type="line" identifier="ZnCDQVdtyD"/>
      <point x="33" y="799" type="line" identifier="uqAJBjDIOT"/>
      <point x="245" y="799" type="line" identifier="7JgTtdb0jg"/>
      <point x="245" y="2" type="line"/>
    </contour>
  </outline>
</glyph>
<glyph name="Z.wide" format="2">
  <advance width="150"/>
  <outline>
    <contour>
      <point x="-33" y="0" type="line"/>
      <point x="182" y="0" type="line" identifier="pzdvPTirLJ"/>
      <point x="182" y="2" type="line"/>
      <point x="-31" y="2" type="line"/>
      <point x="-31" y="237" type="line"/>
      <point x="178" y="1477" type="line" identifier="yyb1NCCI5w"/>
      <point x="178" y="1600" type="line" identifier="5FogYRSgkk"/>
      <point x="-30" y="1600" type="line" identifier="svlFvrau4c"/>
      <point x="-30" y="1598" type="line"/>
      <point x="176" y="1598" type="line"/>
      <point x="176" y="1477" type="line"/>
      <point x="-33" y="240" type="line" identifier="teVKnpBcVb"/>
    </contour>
  </outline>
</glyph>
<glyph name="six.wide" format="2">
  <advance width="246"/>
  <outline>
    <contour>
      <point x="15" y="0" type="line" identifier="uiw6aBUf4P"/>
      <point x="229" y="0" type="line" identifier="jtYkxiUX6G"/>
      <point x="229" y="801" type="line" identifier="2G5L37c87I"/>
      <point x="17" y="801" type="line"/>
      <point x="17" y="1433" type="line"/>
      <point x="70" y="1598" type="line"/>
      <point x="229" y="1598" type="line"/>
      <point x="229" y="1600" type="line" identifier="oGvEEuxnYv"/>
      <point x="68" y="1600" type="line" identifier="xR3pEHbMJx"/>
      <point x="15" y="1434" type="line" identifier="KnMArb0tv8"/>
    </contour>
    <contour>
      <point x="227" y="799" type="line"/>
      <point x="227" y="2" type="line"/>
      <point x="17" y="2" type="line"/>
      <point x="17" y="799" type="line"/>
    </contour>
  </outline>
</glyph>
<glyph name="three.wide" format="2">
  <advance width="284"/>
  <outline>
    <contour>
      <point x="29" y="0" type="line" identifier="O9abUc1nmN"/>
      <point x="243" y="0" type="line" identifier="kMJYMTfXCq"/>
      <point x="243" y="810" type="line" identifier="su2XmdS8e8"/>
      <point x="173" y="810" type="line" identifier="JQaOzDQqlF"/>
      <point x="173" y="813" type="line"/>
      <point x="235" y="907" type="line" identifier="S91TzLL02W"/>
      <point x="235" y="1600" type="line" identifier="xg8x2Ki40p"/>
      <point x="31" y="1600" type="line" identifier="pE1XSRiy68"/>
      <point x="31" y="1598" type="line" identifier="7ogBYufWpl"/>
      <point x="233" y="1598" type="line" identifier="RHLvSX2Jv6"/>
      <point x="233" y="907" type="line" identifier="YUjTrmoWd9"/>
      <point x="171" y="813" type="line"/>
      <point x="171" y="810" type="line" identifier="iic1IBkDqp"/>
      <point x="64" y="810" type="line" identifier="lRLJEhXMlO"/>
      <point x="64" y="808" type="line" identifier="8aKgEELrVU"/>
      <point x="241" y="808" type="line" identifier="Dm8zjmbhNr"/>
      <point x="241" y="2" type="line" identifier="xv9CFHiFgB"/>
      <point x="29" y="2" type="line" identifier="YajKQV3MHP"/>
    </contour>
  </outline>
</glyph>
